<?xml version="1.0" standalone="no"?>
<!DOCTYPE svg PUBLIC "-//W3C//DTD SVG 20010904//EN"
 "http://www.w3.org/TR/2001/REC-SVG-20010904/DTD/svg10.dtd">
<svg version="1.0" xmlns="http://www.w3.org/2000/svg"
 width="114.000000pt" height="150.000000pt" viewBox="0 0 114.000000 150.000000"
 preserveAspectRatio="xMidYMid meet">
<metadata>
Created by potrace 1.16, written by Peter Selinger 2001-2019
</metadata>
<g transform="translate(0.000000,150.000000) scale(0.100000,-0.100000)"
fill="#000000" stroke="none">
<path d="M70 1482 c-8 -10 -11 -11 -6 -3 6 9 -6 1 -24 -17 -30 -28 -33 -35
-23 -52 7 -10 9 -21 5 -24 -4 -2 -7 -21 -7 -40 1 -20 -2 -36 -7 -36 -4 0 -6
-10 -4 -22 3 -13 5 -23 6 -23 1 0 3 -17 5 -37 1 -21 -1 -38 -4 -38 -4 0 -7 -9
-7 -20 0 -11 4 -20 8 -20 4 0 2 -12 -5 -27 -9 -21 -9 -27 1 -31 8 -2 9 -9 2
-22 -6 -10 -6 -30 -1 -48 5 -17 7 -33 4 -35 -2 -3 0 -14 6 -25 8 -15 8 -21 -2
-25 -9 -3 -9 -7 0 -19 10 -11 10 -17 1 -26 -9 -9 -9 -12 1 -12 7 0 9 -4 6 -10
-3 -6 -2 -10 3 -10 5 0 8 -16 7 -35 -2 -19 1 -35 6 -35 4 0 6 -9 4 -20 -2 -11
1 -20 7 -20 6 0 8 -10 4 -24 -4 -15 0 -28 9 -36 8 -7 12 -16 9 -21 -3 -5 -2
-15 3 -21 4 -7 8 -21 9 -30 3 -36 4 -39 14 -33 6 3 7 -1 4 -9 -3 -9 4 -27 15
-42 12 -15 21 -33 21 -40 0 -8 5 -14 11 -14 6 0 9 -6 6 -14 -3 -8 3 -22 13
-31 11 -10 17 -21 15 -25 -3 -4 3 -11 12 -14 12 -5 13 -10 5 -18 -10 -10 5
-36 25 -40 15 -3 41 -42 36 -55 -5 -12 9 -18 31 -14 5 1 4 -5 -4 -13 -9 -12
-9 -16 -1 -16 16 0 42 -26 34 -34 -4 -3 1 -6 10 -6 9 0 16 -4 14 -9 -1 -5 9
-19 23 -32 14 -13 28 -28 30 -34 3 -5 8 -9 13 -8 4 2 7 -2 7 -8 0 -6 6 -9 14
-6 10 4 14 0 11 -13 -3 -14 1 -18 15 -15 14 3 17 -1 13 -12 -4 -10 -2 -14 4
-10 6 4 14 0 17 -9 5 -14 9 -14 23 -3 9 8 14 9 10 3 -4 -7 0 -15 9 -18 23 -9
26 -8 18 7 -5 7 -1 7 10 -2 15 -13 19 -13 27 0 6 10 9 10 9 2 0 -7 4 -13 10
-13 5 0 6 8 3 18 -6 15 -5 15 10 3 15 -12 17 -11 17 5 0 15 2 16 9 5 7 -11 11
-10 20 6 5 11 7 23 4 27 -3 3 1 6 11 6 11 0 15 4 10 13 -6 9 -3 8 8 -1 15 -12
19 -9 32 16 8 16 22 32 31 36 9 3 13 11 9 17 -4 7 -3 9 4 5 6 -3 17 3 25 14 7
11 17 18 20 15 4 -3 5 -2 2 2 -3 3 0 12 6 20 6 7 8 13 4 13 -4 0 -2 7 5 15 7
8 16 12 21 9 5 -3 9 -1 9 5 0 5 8 17 17 27 10 10 18 21 18 25 0 4 12 21 28 38
15 17 24 31 21 31 -4 0 -1 8 7 18 24 28 61 102 52 102 -4 0 -1 5 7 10 11 7 12
10 2 10 -10 0 -10 4 2 16 9 8 16 26 16 39 0 12 6 25 14 28 13 5 29 68 30 115
0 12 4 22 9 22 4 0 5 9 2 20 -4 11 -2 20 4 20 6 0 11 5 11 11 0 5 -5 7 -11 3
-6 -3 -3 8 6 26 10 20 15 44 11 61 -3 16 -1 29 4 29 6 0 10 7 10 16 0 9 -5 12
-12 8 -7 -5 -8 -3 -2 7 13 21 13 269 0 262 -6 -4 -5 0 2 9 15 18 13 143 -2
167 -6 10 -5 12 2 7 7 -4 12 -2 12 3 0 6 -4 11 -10 11 -5 0 -7 6 -4 14 3 7 -2
16 -10 19 -9 4 -16 13 -16 22 0 8 -7 15 -15 15 -8 0 -15 5 -15 10 0 7 -169 10
-487 10 -454 -1 -489 -2 -503 -18z m521 -423 c10 -365 10 -374 32 -397 19 -21
28 -23 69 -19 90 11 142 62 185 181 8 23 31 166 52 319 36 261 44 298 56 285
7 -6 -42 -530 -55 -594 -29 -136 -95 -217 -206 -249 -40 -12 -57 -22 -64 -39
-5 -13 -12 -91 -15 -172 -7 -145 -8 -150 -33 -173 -15 -13 -20 -20 -12 -15 9
4 12 3 7 -2 -5 -5 -12 -8 -15 -7 -4 1 -14 -4 -22 -10 -8 -6 -12 -8 -8 -3 4 4
-6 19 -22 32 -26 23 -29 31 -34 112 -16 254 -16 253 -39 262 -12 5 -41 14 -65
20 -79 20 -152 108 -181 217 -14 50 -73 614 -66 621 13 13 21 -26 57 -276 41
-292 64 -380 111 -437 55 -67 151 -94 198 -56 l24 19 7 367 c6 338 10 406 23
393 3 -3 10 -173 16 -379z"/>
</g>
</svg>
