<?xml version="1.0" standalone="no"?>
<!DOCTYPE svg PUBLIC "-//W3C//DTD SVG 20010904//EN"
 "http://www.w3.org/TR/2001/REC-SVG-20010904/DTD/svg10.dtd">
<svg version="1.0" xmlns="http://www.w3.org/2000/svg"
 width="1240.000000pt" height="1240.000000pt" viewBox="0 0 1240.000000 1240.000000"
 preserveAspectRatio="xMidYMid meet">

<g transform="translate(0.000000,1240.000000) scale(0.100000,-0.100000)"
fill="#000000" stroke="none">
<path d="M2775 10828 c-8 -727 -1 -2403 10 -2462 5 -24 10 -34 15 -26 6 9 11
6 20 -10 10 -18 9 -35 0 -82 -10 -47 -11 -83 -1 -171 6 -62 16 -177 22 -256 6
-84 20 -182 34 -235 12 -50 26 -129 30 -175 3 -46 20 -136 35 -200 16 -64 34
-152 39 -197 6 -44 19 -103 29 -130 11 -27 29 -98 41 -158 12 -60 30 -125 40
-145 10 -20 23 -66 29 -104 6 -37 22 -91 35 -120 13 -29 27 -71 31 -92 12 -67
27 -105 42 -105 9 0 14 -11 14 -28 0 -39 37 -181 52 -199 6 -8 26 -55 44 -106
51 -148 85 -231 98 -247 7 -8 21 -40 30 -70 9 -30 25 -66 35 -80 10 -14 26
-48 35 -77 9 -28 26 -63 37 -77 11 -14 27 -47 36 -73 9 -27 23 -59 33 -73 9
-14 45 -82 81 -153 35 -70 75 -150 89 -177 14 -27 35 -59 46 -72 12 -13 27
-39 33 -59 7 -20 20 -44 30 -54 11 -9 25 -31 32 -48 6 -18 26 -54 44 -82 18
-27 42 -66 53 -85 72 -122 87 -146 99 -158 7 -7 13 -17 13 -22 0 -5 18 -30 40
-55 22 -25 40 -53 40 -61 0 -7 15 -31 34 -51 18 -21 41 -53 50 -70 9 -18 20
-33 25 -33 4 0 13 -12 20 -27 16 -35 120 -173 130 -173 4 0 17 -18 30 -40 12
-22 26 -40 29 -40 4 0 16 -15 27 -32 10 -18 46 -65 79 -104 34 -40 87 -103
119 -141 32 -39 77 -90 100 -114 24 -24 68 -75 99 -114 31 -38 130 -142 220
-231 142 -140 202 -196 368 -349 57 -52 249 -218 291 -250 21 -16 65 -51 98
-77 33 -27 64 -48 70 -48 25 0 8 27 -40 65 -57 45 -108 90 -174 153 l-45 44
-1 361 c-1 199 -4 469 -8 599 -6 227 -7 238 -29 265 -71 88 -82 161 -88 593
-4 316 -13 445 -35 516 -23 76 -176 165 -323 189 -44 7 -109 22 -142 33 -34
11 -88 25 -120 32 -33 7 -79 22 -104 35 -25 12 -63 28 -85 35 -75 24 -227 112
-340 196 -86 63 -311 294 -362 371 -76 114 -116 179 -138 228 -13 28 -30 61
-39 75 -27 47 -88 185 -103 235 -8 28 -21 60 -29 73 -8 12 -23 55 -34 95 -10
39 -27 97 -39 128 -11 31 -25 87 -31 125 -6 38 -22 101 -35 139 -13 39 -26
102 -30 140 -4 39 -13 111 -21 160 -24 162 -52 427 -59 565 -3 74 -15 183 -25
241 -11 59 -21 140 -25 180 -22 293 -39 473 -56 594 -11 77 -24 214 -29 305
-5 91 -18 221 -29 290 -11 69 -25 193 -31 275 -19 270 -30 378 -50 495 -11 63
-24 192 -29 285 -6 94 -17 217 -25 275 -42 302 -42 336 -4 385 23 30 66 33 97
8 34 -28 84 -280 106 -533 4 -41 17 -122 30 -180 13 -58 28 -161 34 -230 6
-69 22 -182 36 -253 14 -70 30 -184 36 -255 6 -70 19 -165 30 -211 11 -46 28
-167 40 -270 11 -102 29 -226 40 -276 11 -49 24 -146 29 -215 5 -69 14 -141
20 -160 16 -54 38 -202 50 -335 6 -66 22 -167 35 -225 13 -58 29 -159 34 -225
6 -66 17 -154 25 -195 8 -41 24 -140 36 -220 12 -80 33 -174 46 -210 13 -36
30 -96 39 -134 9 -37 25 -91 35 -119 11 -27 24 -74 30 -104 7 -30 25 -79 41
-110 16 -30 29 -62 29 -72 0 -26 123 -278 189 -385 20 -32 62 -90 95 -130 32
-39 65 -80 72 -91 35 -53 244 -218 324 -256 93 -44 183 -79 230 -90 30 -7 70
-18 88 -26 77 -32 167 -44 325 -44 l158 0 92 44 c51 25 104 58 118 74 50 55
97 129 117 183 11 30 30 80 41 110 20 53 20 75 20 590 1 520 9 1131 32 2175 6
281 17 917 23 1415 9 603 17 914 24 931 14 35 49 59 87 59 40 0 51 -9 70 -54
14 -33 18 -125 25 -640 5 -330 17 -758 25 -951 9 -192 20 -721 25 -1175 6
-454 14 -915 20 -1025 5 -110 14 -435 20 -722 12 -616 16 -655 86 -772 56 -92
91 -131 165 -182 81 -55 120 -62 321 -57 163 4 178 6 263 35 50 17 106 34 125
38 30 5 196 82 255 118 268 161 407 317 563 632 27 55 53 111 57 125 4 14 18
45 31 70 13 25 24 51 24 58 0 8 14 55 31 106 17 50 39 125 49 167 10 41 25 90
34 107 9 17 23 62 32 99 8 37 24 93 34 123 18 56 34 165 46 320 3 47 14 121
25 165 10 44 26 154 34 245 16 172 39 330 55 390 6 19 15 100 20 179 6 79 19
187 30 241 10 53 26 168 35 256 9 87 27 213 40 279 13 66 29 174 35 240 6 66
15 145 20 175 31 185 42 260 55 385 8 77 21 166 29 197 8 31 19 105 26 165 6
59 15 146 20 193 8 70 28 190 66 388 13 64 105 97 138 50 23 -32 20 -102 -13
-413 -16 -148 -32 -331 -36 -405 -4 -74 -15 -186 -25 -250 -24 -153 -28 -193
-40 -405 -13 -216 -26 -351 -46 -465 -8 -47 -19 -175 -24 -285 -6 -110 -17
-240 -24 -290 -21 -133 -34 -273 -51 -535 -9 -129 -22 -266 -30 -305 -8 -38
-21 -172 -30 -296 -9 -142 -24 -270 -39 -345 -13 -65 -29 -155 -36 -199 -6
-44 -20 -105 -31 -135 -11 -30 -27 -88 -36 -128 -8 -41 -28 -102 -44 -136 -16
-33 -29 -70 -29 -81 0 -11 -13 -47 -28 -80 -16 -33 -34 -77 -41 -97 -15 -44
-167 -347 -185 -368 -8 -8 -21 -30 -30 -48 -47 -92 -239 -293 -354 -371 -139
-94 -171 -114 -232 -142 -36 -17 -72 -37 -81 -45 -8 -7 -46 -24 -85 -38 -38
-13 -96 -33 -129 -45 -84 -30 -315 -91 -343 -91 -34 0 -197 -85 -221 -116 -12
-15 -27 -48 -35 -75 -8 -26 -19 -57 -26 -68 -7 -14 -11 -163 -13 -468 -2 -496
3 -458 -71 -562 l-28 -40 0 -388 c1 -213 -2 -473 -6 -578 -7 -177 -9 -192 -30
-222 -13 -18 -19 -33 -14 -33 5 0 17 11 26 25 9 14 23 25 31 25 29 0 335 289
335 316 0 8 11 19 25 24 43 16 273 241 353 344 20 26 67 81 103 120 37 40 70
82 73 94 4 12 14 22 21 22 8 0 39 33 69 73 30 39 64 82 75 94 12 12 31 37 44
55 39 58 74 101 133 163 31 33 65 80 76 104 10 25 28 51 38 58 11 8 25 31 31
53 7 22 19 42 28 45 9 3 41 43 71 88 30 45 65 95 77 110 12 15 32 47 43 70 11
23 30 56 43 74 12 17 36 55 52 83 17 29 44 73 61 99 17 26 42 66 55 89 69 124
101 182 122 227 14 28 52 100 85 161 33 61 63 122 67 135 4 13 36 83 70 154
34 72 66 144 69 160 4 17 18 46 31 65 13 19 29 55 35 80 6 25 22 63 34 85 13
22 29 64 36 94 7 30 26 79 41 109 16 30 29 63 29 74 0 11 13 50 29 86 16 37
37 110 46 162 10 52 24 100 31 106 18 15 30 50 39 114 4 30 16 71 26 91 10 20
27 81 38 135 11 54 31 135 44 179 14 44 28 105 32 135 4 30 20 109 35 175 16
66 31 154 35 195 4 41 15 109 25 150 34 137 76 582 60 625 -20 52 -6 149 16
114 6 -10 11 0 18 31 11 58 20 2186 11 2738 l-7 422 -3413 0 -3413 0 -7 -642z"/>
<path d="M6461 2307 c-6 -8 -8 -17 -5 -20 9 -8 44 11 44 23 0 15 -26 12 -39
-3z"/>
<path d="M6102 2158 c2 -6 23 -19 45 -29 39 -16 40 -16 36 1 -5 18 -42 40 -69
40 -9 0 -14 -5 -12 -12z"/>
<path d="M6275 2160 c-3 -5 -1 -10 4 -10 6 0 11 5 11 10 0 6 -2 10 -4 10 -3 0
-8 -4 -11 -10z"/>
</g>
</svg>
